<svg width="7" height="11" viewBox="0 0 7 11" fill="none" xmlns="http://www.w3.org/2000/svg">
<path fill-rule="evenodd" clip-rule="evenodd" d="M1.29296 10.707C1.10549 10.5195 1.00017 10.2652 1.00017 10C1.00017 9.73486 1.10549 9.48055 1.29296 9.29302L4.58596 6.00002L1.29296 2.70702C1.19745 2.61477 1.12127 2.50443 1.06886 2.38242C1.01645 2.26042 0.988862 2.1292 0.987709 1.99642C0.986555 1.86364 1.01186 1.73196 1.06214 1.60907C1.11242 1.48617 1.18667 1.37452 1.28056 1.28062C1.37446 1.18673 1.48611 1.11248 1.60901 1.0622C1.7319 1.01192 1.86358 0.986616 1.99636 0.98777C2.12914 0.988924 2.26036 1.01651 2.38236 1.06892C2.50437 1.12133 2.61471 1.19751 2.70696 1.29302L6.70696 5.29302C6.89443 5.48055 6.99975 5.73486 6.99975 6.00002C6.99975 6.26518 6.89443 6.51949 6.70696 6.70702L2.70696 10.707C2.51943 10.8945 2.26512 10.9998 1.99996 10.9998C1.73479 10.9998 1.48049 10.8945 1.29296 10.707Z" fill="#919191"/>
</svg>
